<svg width="13" height="16" viewBox="0 0 13 16" fill="none" xmlns="http://www.w3.org/2000/svg">
<path d="M9.28814 3.8044C9.39956 3.8044 9.57201 3.81766 9.80544 3.84419C10.0442 3.86542 10.3148 3.92378 10.6172 4.01929C10.9197 4.1148 11.2274 4.26867 11.5405 4.48091C11.8535 4.69315 12.1427 4.99029 12.408 5.37232C12.3815 5.38824 12.2807 5.45987 12.1056 5.58721C11.9358 5.71455 11.7421 5.90026 11.5246 6.14434C11.307 6.38311 11.116 6.6882 10.9515 7.05962C10.7923 7.42574 10.7128 7.86348 10.7128 8.37286C10.7128 8.95651 10.8136 9.44997 11.0152 9.85327C11.2221 10.2565 11.4609 10.5828 11.7315 10.8322C12.0074 11.0816 12.2515 11.2646 12.4637 11.3814C12.6813 11.4928 12.798 11.5512 12.8139 11.5565C12.8086 11.5777 12.7688 11.6971 12.6945 11.9146C12.6203 12.1269 12.5035 12.4028 12.3443 12.7424C12.1905 13.0766 11.9888 13.4268 11.7395 13.793C11.5113 14.1166 11.2752 14.427 11.0311 14.7242C10.7923 15.0213 10.5297 15.2627 10.2432 15.4484C9.96204 15.6394 9.64364 15.7349 9.28814 15.7349C9.01753 15.7349 8.78672 15.7031 8.5957 15.6394C8.40469 15.5758 8.22163 15.5015 8.04653 15.4166C7.87674 15.337 7.68838 15.2654 7.48145 15.2017C7.27451 15.138 7.01717 15.1062 6.70943 15.1062C6.30617 15.1062 5.96924 15.1566 5.69863 15.2574C5.43333 15.3635 5.1813 15.4696 4.94253 15.5758C4.70376 15.6819 4.42254 15.7349 4.09888 15.7349C3.60542 15.7349 3.17033 15.5413 2.79361 15.1539C2.42219 14.7666 2.04015 14.2997 1.64751 13.7532C1.34507 13.3181 1.06916 12.8167 0.819778 12.2489C0.570394 11.6812 0.371419 11.0789 0.222851 10.4422C0.074284 9.80547 0 9.16877 0 8.53204C0 7.51329 0.193668 6.65371 0.581006 5.95332C0.968338 5.24763 1.46445 4.71438 2.06934 4.35357C2.67422 3.98746 3.30298 3.8044 3.95562 3.8044C4.30051 3.8044 4.62417 3.86542 4.92661 3.98746C5.23436 4.10949 5.52088 4.23153 5.78618 4.35357C6.05148 4.4703 6.29291 4.52867 6.51045 4.52867C6.71738 4.52867 6.96146 4.4703 7.24268 4.35357C7.52389 4.23153 7.8343 4.10949 8.17388 3.98746C8.51877 3.86542 8.89019 3.8044 9.28814 3.8044ZM8.73101 2.51504C8.46571 2.83871 8.13143 3.10666 7.72818 3.3189C7.33023 3.53114 6.9535 3.63726 6.598 3.63726C6.52372 3.63726 6.45208 3.6293 6.38311 3.61338C6.3778 3.59216 6.36984 3.55502 6.35923 3.50196C6.35392 3.4489 6.35127 3.39053 6.35127 3.32686C6.35127 2.9236 6.43882 2.53096 6.61392 2.14893C6.78902 1.7669 6.99064 1.44854 7.2188 1.19385C7.50002 0.859566 7.85552 0.581006 8.2853 0.358156C8.7204 0.135306 9.13692 0.015918 9.53486 0C9.55078 0.090206 9.55874 0.193666 9.55874 0.310396C9.55874 0.718966 9.4818 1.11692 9.32793 1.50425C9.17406 1.88628 8.97508 2.22321 8.73101 2.51504Z" fill="white"/>
</svg>
