<svg width="13" height="13" viewBox="0 0 13 13" fill="none" xmlns="http://www.w3.org/2000/svg">
<path d="M0 5.23682C0 4.51742 0.135417 3.84033 0.406248 3.20557C0.677088 2.5708 1.05371 2.01433 1.53613 1.53614C2.01856 1.05371 2.57503 0.677083 3.20557 0.40625C3.84033 0.135417 4.51953 0 5.24317 0C5.9668 0 6.64388 0.135417 7.27442 0.40625C7.90918 0.677083 8.46778 1.05371 8.9502 1.53614C9.43262 2.01433 9.80922 2.5708 10.0801 3.20557C10.3509 3.84033 10.4863 4.51742 10.4863 5.23682C10.4863 5.77849 10.4059 6.29476 10.2451 6.78565C10.0885 7.27653 9.86852 7.72722 9.58492 8.1377L12.3208 10.8862C12.4223 10.992 12.4985 11.1084 12.5493 11.2353C12.6043 11.3665 12.6318 11.5062 12.6318 11.6543C12.6318 11.8574 12.5853 12.0415 12.4922 12.2065C12.3991 12.3716 12.2721 12.5006 12.1113 12.5937C11.9505 12.6911 11.7643 12.7397 11.5527 12.7397C11.4088 12.7397 11.2692 12.7143 11.1338 12.6636C10.9984 12.6128 10.8777 12.5345 10.772 12.4287L8.01074 9.66748C7.61296 9.92139 7.1792 10.1224 6.70947 10.2705C6.24398 10.4144 5.75521 10.4863 5.24317 10.4863C4.51953 10.4863 3.84033 10.3509 3.20557 10.0801C2.57503 9.80925 2.01856 9.43262 1.53613 8.9502C1.05371 8.46778 0.677088 7.90918 0.406248 7.27442C0.135417 6.63965 0 5.96045 0 5.23682ZM1.49805 5.23682C1.49805 5.75733 1.59326 6.24398 1.78369 6.69678C1.97835 7.14958 2.24707 7.54737 2.58985 7.89014C2.93685 8.23291 3.33675 8.50163 3.78955 8.69629C4.24235 8.89095 4.72689 8.98828 5.24317 8.98828C5.75944 8.98828 6.24398 8.89095 6.69678 8.69629C7.14958 8.50163 7.54737 8.23291 7.89014 7.89014C8.23291 7.54737 8.50163 7.14958 8.69629 6.69678C8.89095 6.24398 8.98828 5.75733 8.98828 5.23682C8.98828 4.72054 8.89095 4.23812 8.69629 3.78955C8.50163 3.33675 8.23291 2.93897 7.89014 2.59619C7.54737 2.24919 7.14958 1.97836 6.69678 1.78369C6.24398 1.58903 5.75944 1.4917 5.24317 1.4917C4.72689 1.4917 4.24235 1.58903 3.78955 1.78369C3.33675 1.97836 2.93685 2.24919 2.58985 2.59619C2.24707 2.93897 1.97835 3.33675 1.78369 3.78955C1.59326 4.23812 1.49805 4.72054 1.49805 5.23682Z" fill="white"/>
</svg>
