<svg width="14" height="14" viewBox="0 0 14 14" fill="none" xmlns="http://www.w3.org/2000/svg">
<path d="M6.6206 13.2412C5.70654 13.2412 4.84961 13.0677 4.04981 12.7207C3.25 12.3779 2.5454 11.904 1.93603 11.2988C1.33089 10.6937 0.856935 9.99121 0.51416 9.1914C0.171386 8.3916 0 7.53466 0 6.6206C0 5.70654 0.171386 4.84961 0.51416 4.0498C0.856935 3.25 1.33089 2.54752 1.93603 1.94238C2.5454 1.333 3.25 0.856933 4.04981 0.514163C4.84961 0.171386 5.70654 0 6.6206 0C7.53466 0 8.3916 0.171386 9.1914 0.514163C9.9912 0.856933 10.6937 1.333 11.2988 1.94238C11.904 2.54752 12.3779 3.25 12.7207 4.0498C13.0677 4.84961 13.2412 5.70654 13.2412 6.6206C13.2412 7.53466 13.0677 8.3916 12.7207 9.1914C12.3779 9.99121 11.904 10.6937 11.2988 11.2988C10.6937 11.904 9.9912 12.3779 9.1914 12.7207C8.3916 13.0677 7.53466 13.2412 6.6206 13.2412ZM6.6206 11.7876C7.33578 11.7876 8.00439 11.6543 8.62646 11.3877C9.25276 11.1211 9.80081 10.7508 10.2705 10.2768C10.7445 9.79871 11.1147 9.24851 11.3813 8.62646C11.6522 8.00016 11.7876 7.33154 11.7876 6.6206C11.7876 5.90543 11.6522 5.23681 11.3813 4.61474C11.1147 3.98844 10.7445 3.43831 10.2705 2.96435C9.80081 2.49039 9.25276 2.12011 8.62646 1.85351C8.00439 1.58691 7.33578 1.45361 6.6206 1.45361C5.90543 1.45361 5.23471 1.58691 4.6084 1.85351C3.98633 2.12011 3.43832 2.49039 2.96435 2.96435C2.49039 3.43831 2.12011 3.98844 1.85351 4.61474C1.58691 5.23681 1.45361 5.90543 1.45361 6.6206C1.45361 7.33154 1.58691 8.00016 1.85351 8.62646C2.12011 9.24851 2.49039 9.79871 2.96435 10.2768C3.43832 10.7508 3.98633 11.1211 4.6084 11.3877C5.23471 11.6543 5.90543 11.7876 6.6206 11.7876ZM10.772 10.8164C10.3573 11.1719 9.9045 11.4702 9.41357 11.7114C8.92692 11.9569 8.44026 12.1409 7.95361 12.2637C7.46695 12.3906 7.02262 12.4541 6.6206 12.4541C6.22705 12.4541 5.78483 12.3906 5.29394 12.2637C4.80729 12.1409 4.31852 11.9569 3.82763 11.7114C3.33675 11.4702 2.88606 11.1719 2.47558 10.8164L2.50097 10.6767C2.65755 10.3678 2.92627 10.0737 3.30713 9.79441C3.68799 9.51091 4.15983 9.28031 4.72265 9.10254C5.28548 8.9248 5.91813 8.83593 6.6206 8.83593C7.33154 8.83593 7.96842 8.9248 8.53124 9.10254C9.09407 9.28031 9.5638 9.51091 9.9404 9.79441C10.3213 10.0737 10.59 10.3699 10.7466 10.6831L10.772 10.8164ZM6.6206 7.81396C6.21012 7.80973 5.83985 7.70182 5.50977 7.49023C5.17969 7.27864 4.91731 6.993 4.72265 6.6333C4.53222 6.26937 4.4349 5.861 4.43067 5.4082C4.42644 4.98079 4.52164 4.58935 4.7163 4.23388C4.9152 3.87841 5.17969 3.59277 5.50977 3.37695C5.84408 3.16113 6.21435 3.05322 6.6206 3.05322C7.03108 3.05322 7.40136 3.16113 7.73144 3.37695C8.06152 3.59277 8.32389 3.87841 8.51855 4.23388C8.71744 4.58935 8.81689 4.98079 8.81689 5.4082C8.81689 5.861 8.71956 6.26937 8.5249 6.6333C8.33024 6.99723 8.06788 7.28711 7.7378 7.50293C7.40772 7.71451 7.03531 7.81819 6.6206 7.81396Z" fill="white"/>
</svg>
