<svg width="15" height="11" viewBox="0 0 15 11" fill="none" xmlns="http://www.w3.org/2000/svg">
<path d="M7.4653 10.8164C7.38066 10.8164 7.29603 10.7932 7.21139 10.7466C7.13099 10.7001 7.02731 10.6133 6.90036 10.4864L5.33249 8.98193C5.27324 8.92269 5.23516 8.85921 5.21823 8.7915C5.20553 8.71956 5.21823 8.65185 5.25632 8.58838C5.48906 8.27946 5.8001 8.02132 6.18942 7.81396C6.58298 7.60237 7.00827 7.49658 7.4653 7.49658C7.90964 7.49658 8.32435 7.59603 8.70944 7.79492C9.09453 7.99381 9.40345 8.23925 9.6362 8.53125C9.6954 8.60319 9.7187 8.68147 9.706 8.76611C9.6976 8.85075 9.6616 8.92269 9.5981 8.98193L8.03024 10.4864C7.90329 10.6133 7.79749 10.7001 7.71286 10.7466C7.63245 10.7932 7.54994 10.8164 7.4653 10.8164ZM3.66305 7.26172L2.65378 6.27783C2.5903 6.21435 2.55645 6.14453 2.55221 6.06836C2.54798 5.98795 2.57337 5.9139 2.62839 5.84619C2.96693 5.44417 3.38587 5.0887 3.88522 4.77978C4.38457 4.46663 4.93893 4.22119 5.54831 4.04345C6.16191 3.86572 6.80091 3.77685 7.4653 3.77685C8.12969 3.77685 8.76657 3.86572 9.37594 4.04345C9.9853 4.22119 10.5397 4.46663 11.039 4.77978C11.5426 5.0887 11.9616 5.44417 12.2959 5.84619C12.3551 5.9139 12.3805 5.98795 12.372 6.06836C12.3678 6.14876 12.334 6.21858 12.2705 6.27783L11.2612 7.26172C11.1808 7.33789 11.094 7.37597 11.0009 7.37597C10.9121 7.37597 10.8317 7.33789 10.7597 7.26172C10.3577 6.83431 9.8647 6.48519 9.28073 6.21435C8.70098 5.94352 8.09583 5.81022 7.4653 5.81445C6.84323 5.81022 6.2402 5.9414 5.65622 6.208C5.07647 6.47037 4.58981 6.81315 4.19626 7.23632C4.12009 7.32096 4.03122 7.36751 3.92966 7.37597C3.83232 7.38021 3.74346 7.34212 3.66305 7.26172ZM0.997037 4.62744L0.102016 3.71338C0.0385394 3.64567 0.00468544 3.57161 0.000453444 3.49121C-0.00377856 3.40657 0.0216124 3.33252 0.0766254 3.26904C0.588667 2.63004 1.23402 2.0651 2.01266 1.57422C2.79131 1.0791 3.64613 0.69401 4.57712 0.418945C5.51234 0.139648 6.47507 0 7.4653 0C8.4513 0 9.41191 0.139648 10.3471 0.418945C11.2824 0.698242 12.1372 1.08333 12.9116 1.57422C13.6902 2.0651 14.3356 2.63004 14.8476 3.26904C14.9069 3.33252 14.9344 3.40657 14.9301 3.49121C14.9301 3.57161 14.8963 3.64567 14.8286 3.71338L13.9272 4.61474C13.8553 4.68668 13.7706 4.72477 13.6733 4.729C13.576 4.73323 13.4913 4.69938 13.4194 4.62744C12.6408 3.78955 11.7436 3.15478 10.728 2.72314C9.7166 2.28727 8.62904 2.06933 7.4653 2.06933C6.31003 2.06933 5.22669 2.28727 4.2153 2.72314C3.20391 3.15478 2.30466 3.78743 1.51755 4.62109C1.44561 4.69726 1.35885 4.73746 1.25729 4.7417C1.15996 4.7417 1.07321 4.70361 0.997037 4.62744Z" fill="white"/>
</svg>
